<svg xmlns="http://www.w3.org/2000/svg" xmlns:xlink="http://www.w3.org/1999/xlink" version="1.1" x="0px" y="0px" width="100px" height="100px" viewBox="0 0 100 100" enable-background="new 0 0 100 100" xml:space="preserve" fill="white" opacity="0.80">
<g id="Captions">
</g>
<g id="Your_Icon">
	<g>
		<path d="M82,19H71h-4.583l-3.109-7.461v0c-0.727-1.71-1.951-2.996-3.366-3.951C58.516,6.649,56.858,6.013,55,6H43    c-1.873,0.012-3.54,0.671-4.947,1.647c-1.398,0.99-2.588,2.331-3.239,4.087l-2.633,7.241L32.25,19H28H17c-2.209,0-4,1.791-4,4    s1.791,4,4,4h4v61c-0.001,1.927,0.794,3.691,2.054,4.946c1.255,1.26,3.02,2.055,4.946,2.054h43    c1.927,0.001,3.691-0.794,4.946-2.054c1.26-1.255,2.055-3.02,2.054-4.946V27h4c2.209,0,4-1.791,4-4S84.209,19,82,19z     M40.452,13.785c0.1-0.312,0.494-0.85,1.042-1.223C42.032,12.174,42.673,11.988,43,12h12c0.342-0.013,1.03,0.181,1.612,0.581    c0.593,0.384,1.037,0.945,1.156,1.265v0L59.916,19h-21.36L40.452,13.785z M72,88c-0.001,0.273-0.105,0.509-0.296,0.704    C71.509,88.895,71.273,88.999,71,89H28c-0.273-0.001-0.509-0.105-0.704-0.296C27.105,88.509,27.001,88.273,27,88V27h45V88z"/>
		<path d="M36,82c1.657,0,3-1.343,3-3V36c0-1.657-1.343-3-3-3s-3,1.343-3,3v43C33,80.657,34.343,82,36,82z"/>
		<path d="M62,82c1.657,0,3-1.343,3-3V36c0-1.657-1.343-3-3-3s-3,1.343-3,3v43C59,80.657,60.343,82,62,82z"/>
		<path d="M49,82c1.657,0,3-1.343,3-3V36c0-1.657-1.343-3-3-3s-3,1.343-3,3v43C46,80.657,47.343,82,49,82z"/>
	</g>
</g>
</svg>